:FULLY-SPECIFIED
:FORCE-ALL-JOINTS-BE-3DOF
:DEGREES
476
root 3.65578 16.3245 -7.15395 5.14212 60.0212 -6.16573
lfemur -39.1031 -2.30099 -22.1941
ltibia 49.2356 -0 0
lfoot -20.2224 0.768583 -0.00142818
ltoes 16.7383 -0 0
rfemur -21.9756 2.50689 9.28613
rtibia 71.4545 -0 0
rfoot 25.4635 16.2295 -0.103416
rtoes -26.9555 0 0
lowerback 2.15263 0.00156441 1.30051
upperback -0.36928 0.0615118 1.20899
thorax -1.58501 0.0264358 0.507544
lowerneck -8.45442 -6.91167 0.44006
upperneck 3.48895 -9.35294 1.48219
head 2.62159 -4.59184 -0.0545998
lclavicle 8.47303e-15 -2.67839e-14 -1.93947e-30
lhumerus -48.8489 -27.2443 108.15
lradius 56.1883 -0 0
lwrist 5.10024 0 0
lhand -9.24881 -6.0678 -0.0038584
lfingers 7.12502 -0 0
lthumb 16.7072 23.2368 -0.00220294
rclavicle 8.47303e-15 -2.67839e-14 -1.93947e-30
rhumerus -55.0643 2.42443 -83.7148
rradius 62.4044 -0 0
rwrist 14.9361 0 0
rhand -29.2583 -26.387 -0.000673004
rfingers 7.12502 -0 0
rthumb -2.60119 -56.3537 -0.000674837
477
root 3.7284 16.341 -7.10752 5.36091 61.1355 -5.63991
lfemur -38.3036 -3.32641 -22.4422
ltibia 48.7943 0 0
lfoot -20.3052 0.66072 0
ltoes 16.8988 0 0
rfemur -24.0532 2.3438 9.13449
rtibia 73.482 0 0
rfoot 24.3727 16.5457 0
rtoes -25.5466 0 0
lowerback 2.28222 -0.026124 1.04304
upperback -0.333723 0.0168387 1.11333
thorax -1.62127 0.00565704 0.555395
lowerneck -8.43167 -7.03543 0.323417
upperneck 3.57953 -9.51322 1.57741
head 2.66017 -4.66884 -0.0154352
lclavicle 2.13383e-14 -2.40529e-14 0
lhumerus -48.931 -27.5431 108.407
lradius 56.3398 0 0
lwrist 5.15338 0 0
lhand -8.22792 -5.51879 0
lfingers 7.12502 0 0
lthumb 17.6895 23.6965 0
rclavicle 2.13383e-14 -2.40529e-14 0
rhumerus -54.6057 3.09377 -84.35
rradius 62.5467 0 0
rwrist 15.5381 0 0
rhand -28.8569 -25.9167 0
rfingers 7.12502 0 0
rthumb -2.2135 -775.885 0
478
root 3.80105 16.3577 -7.06018 5.58346 62.2837 -5.15548
lfemur -37.5407 -4.27474 -22.6714
ltibia 48.3484 -0 0
lfoot -20.4007 0.431222 0.00153455
ltoes 17.1114 -0 0
rfemur -26.1711 2.05318 9.08955
rtibia 75.3358 -0 0
rfoot 23.4633 16.0008 0.0841265
rtoes -24.1847 0 0
lowerback 2.38232 -0.0659043 0.841676
upperback -0.313259 -0.0430925 1.01798
thorax -1.6563 -0.0231587 0.572836
lowerneck -8.427 -7.15684 0.211246
upperneck 3.70052 -9.67051 1.64928
head 2.7113 -4.74463 0.0143036
lclavicle 2.66093e-14 -2.13881e-14 1.41595e-30
lhumerus -49.0061 -27.8485 108.682
lradius 56.4363 -0 0
lwrist 5.19236 0 0
lhand -7.14035 -4.93373 0.00681702
lfingers 7.12502 -0 0
lthumb 18.7354 24.1795 0.00453197
rclavicle 2.66093e-14 -2.13881e-14 1.41595e-30
rhumerus -54.1295 3.75871 -85.0174
rradius 62.7406 -0 0
rwrist 16.1534 0 0
rhand -28.3554 -25.5713 -0.000606428
rfingers 7.12502 -0 0
rthumb -1.72911 -55.5423 -0.000776612
479
root 3.87287 16.3742 -7.01231 5.82006 63.4442 -4.70106
lfemur -36.8208 -5.13003 -22.8814
ltibia 47.8998 -0 0
lfoot -20.5119 0.0815983 0.00259965
ltoes 17.356 -0 0
rfemur -28.3745 1.61288 9.14996
rtibia 77.0792 -0 0
rfoot 22.5995 14.6212 0.14093
rtoes -22.8422 0 0
lowerback 2.45675 -0.117294 0.687291
upperback -0.304891 -0.117669 0.918949
thorax -1.68923 -0.0596698 0.560863
lowerneck -8.43235 -7.2712 0.105938
upperneck 3.84688 -9.81912 1.70708
head 2.77228 -4.81612 0.037817
lclavicle 2.68822e-14 -1.84505e-14 2.34361e-30
lhumerus -49.0738 -28.1651 108.973
lradius 56.4807 -0 0
lwrist 5.20811 0 0
lhand -5.99816 -4.30646 0.0162413
lfingers 7.12502 -0 0
lthumb 19.8333 24.6919 0.011871
rclavicle 2.68822e-14 -1.84505e-14 2.34361e-30
rhumerus -53.6103 4.4151 -85.731
rradius 62.9519 -0 0
rwrist 16.7992 0 0
rhand -27.7792 -25.3072 -0.00383137
rfingers 7.12502 -0 0
rthumb -1.17252 -55.283 -0.004351
480
root 3.94405 16.3901 -6.96372 6.06398 64.6142 -4.26972
lfemur -36.1347 -5.91837 -23.0703
ltibia 47.4589 -0 0
lfoot -20.6351 -0.351637 0.00299771
ltoes 17.6176 -0 0
rfemur -30.6227 1.09442 9.29914
rtibia 78.6854 -0 0
rfoot 21.7716 12.6871 0.161713
rtoes -21.5446 0 0
lowerback 2.51594 -0.176015 0.565877
upperback -0.304039 -0.201244 0.82036
thorax -1.7212 -0.100927 0.531338
lowerneck -8.44499 -7.38048 0.00592344
upperneck 4.01187 -9.96142 1.75295
head 2.84044 -4.88452 0.0561735
lclavicle 2.35144e-14 -1.54077e-14 2.64642e-30
lhumerus -49.1327 -28.4865 109.276
lradius 56.4839 -0 0
lwrist 5.20068 0 0
lhand -4.83094 -3.66223 0.0237062
lfingers 7.12502 -0 0
lthumb 20.9547 25.2125 0.0181168
rclavicle 2.35144e-14 -1.54077e-14 2.64642e-30
rhumerus -53.0603 5.09425 -86.481
rradius 63.2068 -0 0
rwrist 17.4657 0 0
rhand -27.1313 -25.0977 -0.00753682
rfingers 7.12502 -0 0
rthumb -0.546655 -55.0783 -0.00841443
481
root 4.01475 16.4052 -6.9142 6.30838 65.7913 -3.85472
lfemur -35.4725 -6.66581 -23.237
ltibia 47.0359 -0 0
lfoot -20.7665 -0.831971 0.00267624
ltoes 17.8817 -0 0
rfemur -32.8754 0.567719 9.51476
rtibia 80.1281 -0 0
rfoot 20.9715 10.4787 0.146625
rtoes -20.3178 0 0
lowerback 2.57032 -0.237678 0.463423
upperback -0.306157 -0.288156 0.726315
thorax -1.7534 -0.143968 0.496118
lowerneck -8.4622 -7.48665 -0.0903823
upperneck 4.18872 -10.0997 1.78906
head 2.91314 -4.95107 0.0704467
lclavicle 1.78639e-14 -1.24276e-14 2.31459e-30
lhumerus -49.1815 -28.8065 109.589
lradius 56.4571 -0 0
lwrist 5.17012 0 0
lhand -3.66836 -3.0264 0.0262881
lfingers 7.12502 -0 0
lthumb 22.0711 25.7197 0.0206919
rclavicle 1.78639e-14 -1.24276e-14 2.31459e-30
rhumerus -52.4922 5.827 -87.2572
rradius 63.5315 -0 0
rwrist 18.1433 0 0
rhand -26.4146 -24.9158 -0.00992756
rfingers 7.12502 -0 0
rthumb 0.145585 -54.8995 -0.0110272
482
root 4.08516 16.4193 -6.86356 6.54629 66.9729 -3.4496
lfemur -34.8246 -7.39825 -23.3817
ltibia 46.6412 -0 0
lfoot -20.9025 -1.32289 0.00178111
ltoes 18.1335 -0 0
rfemur -35.0914 0.100459 9.76855
rtibia 81.3806 -0 0
rfoot 20.1907 8.27581 0.103563
rtoes -19.1873 0 0
lowerback 2.63031 -0.297816 0.365906
upperback -0.306728 -0.372726 0.640908
thorax -1.78699 -0.185816 0.467063
lowerneck -8.48121 -7.59166 -0.184576
upperneck 4.37064 -10.2364 1.81761
head 2.98772 -5.01698 0.0817144
lclavicle 1.12882e-14 -9.67799e-15 1.51098e-30
lhumerus -49.2185 -29.1191 109.911
lradius 56.4111 -0 0
lwrist 5.11649 0 0
lhand -2.54014 -2.42446 0.0227438
lfingers 7.12502 -0 0
lthumb 23.1542 26.192 0.0183559
rclavicle 1.12882e-14 -9.67799e-15 1.51098e-30
rhumerus -51.9195 6.64371 -88.0491
rradius 63.952 -0 0
rwrist 18.8221 0 0
rhand -25.6322 -24.7347 -0.00972709
rfingers 7.12502 -0 0
rthumb 0.901294 -54.7179 -0.0107997
483
root 4.15544 16.4322 -6.81159 6.77063 68.1566 -3.04815
lfemur -34.1805 -8.14153 -23.5051
ltibia 46.2851 -0 0
lfoot -21.0393 -1.78788 0.000686302
ltoes 18.3581 -0 0
rfemur -37.2285 -0.242373 10.0265
rtibia 82.4163 -0 0
rfoot 19.4197 6.3582 0.0474616
rtoes -18.179 0 0
lowerback 2.70637 -0.351899 0.259292
upperback -0.301263 -0.449265 0.568218
thorax -1.8232 -0.223485 0.456027
lowerneck -8.49926 -7.69747 -0.278264
upperneck 4.55081 -10.3738 1.8408
head 3.06151 -5.08348 0.0910578
lclavicle 5.14499e-15 -7.32655e-15 5.77205e-31
lhumerus -49.2421 -29.4181 110.239
lradius 56.3569 -0 0
lwrist 5.03984 0 0
lhand -1.47602 -1.8819 0.0134153
lfingers 7.12502 -0 0
lthumb 24.1752 26.6077 0.011111
rclavicle 5.14499e-15 -7.32655e-15 5.77205e-31
rhumerus -51.3559 7.5742 -88.846
rradius 64.4944 -0 0
rwrist 19.4924 0 0
rhand -24.7869 -24.5274 -0.00633991
rfingers 7.12502 -0 0
rthumb 1.71758 -54.5047 -0.0070588
484
root 4.22579 16.4437 -6.75809 6.97404 69.3397 -2.6445
lfemur -33.53 -8.92142 -23.6091
ltibia 45.9779 0 0
lfoot -21.1734 -2.19044 0
ltoes 18.5409 0 0
rfemur -39.2433 -0.398685 10.2498
rtibia 83.2088 0 0
rfoot 18.6477 5.00504 0
rtoes -17.3184 0 0
lowerback 2.80895 -0.395314 0.129542
upperback -0.285297 -0.512072 0.512318
thorax -1.86323 -0.25397 0.474865
lowerneck -8.51357 -7.80601 -0.373066
upperneck 4.72242 -10.5143 1.86088
head 3.13186 -5.15179 0.0995613
lclavicle 7.92033e-16 -5.54112e-15 0
lhumerus -49.2505 -29.6974 110.571
lradius 56.3056 0 0
lwrist 4.94023 0 0
lhand -0.505724 -1.42422 0
lfingers 7.12502 0 0
lthumb 25.1059 26.9452 0
rclavicle 7.92033e-16 -5.54112e-15 0
rhumerus -50.8159 8.64771 -89.6376
rradius 65.185 0 0
rwrist 20.1445 0 0
rhand -23.8818 -24.267 0
rfingers 7.12502 0 0
rthumb 2.59155 -774.231 0
485
root 4.29612 16.4538 -6.70281 7.16525 70.5229 -2.22862
lfemur -32.8684 -9.74864 -23.6937
ltibia 45.7121 -0 0
lfoot -21.2981 -2.53579 -0.000521301
ltoes 18.6968 -0 0
rfemur -41.1655 -0.374579 10.4554
rtibia 83.7444 -0 0
rfoot 17.8742 4.1099 -0.0210603
rtoes -16.6142 0 0
lowerback 2.93741 -0.429237 -0.0273339
upperback -0.258399 -0.563205 0.470595
thorax -1.90612 -0.27818 0.523269
lowerneck -8.52197 -7.91559 -0.467471
upperneck 4.87921 -10.6554 1.87553
head 3.19577 -5.22091 0.106832
lclavicle -2.58672e-15 -4.34965e-15 -1.73364e-31
lhumerus -49.235 -29.954 110.907
lradius 56.2389 -0 0
lwrist 4.79226 0 0
lhand 0.371819 -1.05625 -0.0110933
lfingers 7.12502 -0 0
lthumb 25.947 27.1978 -0.00960759
rclavicle -2.58672e-15 -4.34965e-15 -1.73364e-31
rhumerus -50.3148 9.84547 -90.4589
rradius 66.0085 -0 0
rwrist 20.7974 0 0
rhand -22.931 -23.9793 0.000295354
rfingers 7.12502 -0 0
rthumb 3.50992 -53.9283 -6.6626e-05
486
root 4.36626 16.4626 -6.64583 7.35343 71.7087 -1.80269
lfemur -32.204 -10.6045 -23.7577
ltibia 45.4761 -0 0
lfoot -21.4145 -2.85814 -0.00131938
ltoes 18.8439 -0 0
rfemur -43.0424 -0.227381 10.6732
rtibia 84.0421 -0 0
rfoot 17.1082 3.38872 -0.0215855
rtoes -16.0463 0 0
lowerback 3.08223 -0.458015 -0.200193
upperback -0.224441 -0.608408 0.438548
thorax -1.95049 -0.299057 0.590597
lowerneck -8.52621 -8.0239 -0.559548
upperneck 5.02522 -10.7943 1.88202
head 3.25463 -5.28942 0.111782
lclavicle -6.47012e-15 -3.61232e-15 -2.73222e-31
lhumerus -49.1941 -30.1927 111.25
lradius 56.1411 -0 0
lwrist 4.58742 0 0
lhand 1.18345 -0.756816 -0.0155666
lfingers 7.12502 -0 0
lthumb 26.7241 27.3826 -0.0136922
rclavicle -6.47012e-15 -3.61232e-15 -2.73222e-31
rhumerus -49.8493 11.1352 -91.3311
rradius 66.9365 -0 0
rwrist 21.4662 0 0
rhand -21.9366 -23.6969 -0.00905278
rfingers 7.12502 -0 0
rthumb 4.47077 -53.6329 -0.0114127
487
root 4.43621 16.4703 -6.58749 7.52975 72.8979 -1.38135
lfemur -31.5453 -11.4707 -23.8015
ltibia 45.274 -0 0
lfoot -21.5305 -3.16442 -0.0020108
ltoes 18.9721 -0 0
rfemur -44.8567 0.0249637 10.8817
rtibia 84.1245 -0 0
rfoot 16.3522 2.8541 -0.00995336
rtoes -15.5977 0 0
lowerback 3.24055 -0.481743 -0.380363
upperback -0.18542 -0.647516 0.417416
thorax -1.99692 -0.316635 0.673198
lowerneck -8.52939 -8.13198 -0.650284
upperneck 5.16898 -10.9324 1.88196
head 3.31231 -5.35788 0.114452
lclavicle -1.04947e-14 -3.24525e-15 -3.02695e-31
lhumerus -49.1365 -30.4187 111.598
lradius 56.0267 -0 0
lwrist 4.35108 0 0
lhand 1.93809 -0.512376 -0.0146113
lfingers 7.12502 -0 0
lthumb 27.446 27.5137 -0.0131303
rclavicle -1.04947e-14 -3.24525e-15 -3.02695e-31
rhumerus -49.4057 12.5255 -92.2217
rradius 67.9756 -0 0
rwrist 22.135 0 0
rhand -20.8834 -23.403 -0.0214289
rfingers 7.12502 -0 0
rthumb 5.48837 -53.3228 -0.0261867
488
root 4.50599 16.4769 -6.5281 7.68188 74.091 -0.982674
lfemur -30.9012 -12.3287 -23.8246
ltibia 45.1096 -0 0
lfoot -21.6537 -3.46158 -0.00232725
ltoes 19.0715 -0 0
rfemur -46.5911 0.363205 11.0611
rtibia 84.014 -0 0
rfoot 15.609 2.51892 0.00576026
rtoes -15.2512 0 0
lowerback 3.40948 -0.500577 -0.559168
upperback -0.143331 -0.680371 0.408442
thorax -2.04601 -0.33095 0.76742
lowerneck -8.53459 -8.24088 -0.740657
upperneck 5.31907 -11.0714 1.87691
head 3.37269 -5.42691 0.114867
lclavicle -1.4297e-14 -3.16455e-15 -2.66209e-31
lhumerus -49.0713 -30.6372 111.953
lradius 55.91 -0 0
lwrist 4.10863 0 0
lhand 2.64464 -0.30948 -0.0100369
lfingers 7.12502 -0 0
lthumb 28.1213 27.605 -0.00936869
rclavicle -1.4297e-14 -3.16455e-15 -2.66209e-31
rhumerus -48.9687 14.0246 -93.0976
rradius 69.1324 -0 0
rwrist 22.788 0 0
rhand -19.7563 -23.0806 -0.0310171
rfingers 7.12502 -0 0
rthumb 6.57706 -52.976 -0.0374981
